<svg width="22" height="22" viewBox="0 0 22 22" fill="none" xmlns="http://www.w3.org/2000/svg">
<path d="M20.3715 0H1.62422C0.72617 0 0 0.708987 0 1.58555V20.4101C0 21.2867 0.72617 22 1.62422 22H20.3715C21.2695 22 22 21.2867 22 20.4144V1.58555C22 0.708987 21.2695 0 20.3715 0ZM6.52694 18.7473H3.26133V8.24569H6.52694V18.7473ZM4.89413 6.81487C3.8457 6.81487 2.99922 5.96837 2.99922 4.9242C2.99922 3.88008 3.8457 3.03359 4.89413 3.03359C5.9383 3.03359 6.78475 3.88008 6.78475 4.9242C6.78475 5.96406 5.9383 6.81487 4.89413 6.81487ZM18.7473 18.7473H15.4859V13.6426C15.4859 12.4266 15.4644 10.8582 13.7887 10.8582C12.0914 10.8582 11.8336 12.1859 11.8336 13.5566V18.7473H8.57656V8.24569H11.7047V9.68087H11.7476C12.1816 8.85587 13.2473 7.98362 14.8328 7.98362C18.1371 7.98362 18.7473 10.1578 18.7473 12.9852V18.7473Z" fill="black"/>
</svg>
