<svg width="22" height="22" viewBox="0 0 22 22" fill="none" xmlns="http://www.w3.org/2000/svg">
<path d="M21.7231 2.91331C20.9233 3.34219 20.0751 3.62361 19.2063 3.74804C20.1213 3.08537 20.806 2.04254 21.1329 0.813959C20.2728 1.43199 19.3317 1.86719 18.3504 2.1007C17.9403 1.5713 17.4449 1.14948 16.8946 0.861369C16.3444 0.57325 15.7512 0.424995 15.1517 0.425784C12.7317 0.425784 10.7695 2.80049 10.7695 5.73056C10.7695 6.14593 10.8084 6.55125 10.8833 6.93978C7.24112 6.7185 4.01224 4.60639 1.85081 1.39655C1.46109 2.20616 1.25631 3.12669 1.25747 4.06368C1.2569 4.9371 1.43455 5.79717 1.77465 6.5674C2.11475 7.33775 2.60677 7.99433 3.20698 8.47902C2.51119 8.45228 1.83075 8.22475 1.22224 7.81555C1.22169 7.83767 1.22169 7.85944 1.22169 7.88236C1.22169 10.4517 2.73208 12.5958 4.73649 13.0837C4.09109 13.2952 3.41438 13.3262 2.7576 13.1744C3.31516 15.2814 4.93346 16.8157 6.85105 16.8587C5.29876 18.3333 3.38187 19.1332 1.40865 19.1296C1.05497 19.1296 0.706294 19.1048 0.363159 19.0554C2.36685 20.6138 4.69886 21.4411 7.08047 21.4382C15.1409 21.4382 19.5487 13.3553 19.5487 6.34607C19.5487 6.11646 19.5442 5.88702 19.5359 5.65905C20.3942 4.90887 21.135 3.97901 21.7231 2.91331Z" fill="black"/>
</svg>
